HIERARCHY
ROOT Hips
{
	OFFSET 0.000000 0.000000 0.000000
	CHANNELS 6 Xposition Yposition Zposition Zrotation Yrotation Xrotation 
	JOINT LHipJoint
	{
		OFFSET 0.000000 0.000000 0.000000
		CHANNELS 3 Zrotation Yrotation Xrotation
		JOINT LeftUpLeg
		{
			OFFSET 1.363060 -1.794630 0.839290
			CHANNELS 3 Zrotation Yrotation Xrotation
			JOINT LeftLeg
			{
				OFFSET 2.448110 -6.726130 0.000000
				CHANNELS 3 Zrotation Yrotation Xrotation
				JOINT LeftFoot
				{
					OFFSET 2.562200 -7.039590 0.000000
					CHANNELS 3 Zrotation Yrotation Xrotation
					JOINT LeftToeBase
					{
						OFFSET 0.157640 -0.433110 2.322550
						CHANNELS 3 Zrotation Yrotation Xrotation
						End Site
						{
							OFFSET 0.000000 0.000000 0.000000
						}
					}
				}
			}
		}
	}
	JOINT RHipJoint
	{
		OFFSET 0.000000 0.000000 0.000000
		CHANNELS 3 Zrotation Yrotation Xrotation
		JOINT RightUpLeg
		{
			OFFSET -1.305520 -1.794630 0.839290
			CHANNELS 3 Zrotation Yrotation Xrotation
			JOINT RightLeg
			{
				OFFSET -2.542530 -6.985550 0.000000
				CHANNELS 3 Zrotation Yrotation Xrotation
				JOINT RightFoot
				{
					OFFSET -2.568260 -7.056230 0.000000
					CHANNELS 3 Zrotation Yrotation Xrotation
					JOINT RightToeBase
					{
						OFFSET -0.164730 -0.452590 2.363150
						CHANNELS 3 Zrotation Yrotation Xrotation
						End Site
						{
							OFFSET 0.000000 0.000000 0.000000
						}
					}
				}
			}
		}
	}
	JOINT LowerBack
	{
		OFFSET 0.000000 0.000000 0.000000
		CHANNELS 3 Zrotation Yrotation Xrotation
		JOINT Spine
		{
			OFFSET 0.028270 2.035590 -0.193380
			CHANNELS 3 Zrotation Yrotation Xrotation
			JOINT Spine1
			{
				OFFSET 0.056720 2.048850 -0.042750
				CHANNELS 3 Zrotation Yrotation Xrotation
				JOINT Neck
				{
					OFFSET 0.000000 0.000000 0.000000
					CHANNELS 3 Zrotation Yrotation Xrotation
					JOINT Neck1
					{
						OFFSET -0.054170 1.746240 0.172020
						CHANNELS 3 Zrotation Yrotation Xrotation
						JOINT Head
						{
							OFFSET 0.104070 1.761360 -0.123970
							CHANNELS 3 Zrotation Yrotation Xrotation
							End Site
							{
								OFFSET 0.000000 0.000000 0.000000
							}
						}
					}
				}
				JOINT LeftShoulder
				{
					OFFSET 0.000000 0.000000 0.000000
					CHANNELS 3 Zrotation Yrotation Xrotation
					JOINT LeftArm
					{
						OFFSET 3.362410 1.200890 -0.311210
						CHANNELS 3 Zrotation Yrotation Xrotation
						JOINT LeftForeArm
						{
							OFFSET 4.983000 -0.000000 -0.000000
							CHANNELS 3 Zrotation Yrotation Xrotation
							JOINT LeftHand
							{
								OFFSET 3.483560 -0.000000 -0.000000
								CHANNELS 3 Zrotation Yrotation Xrotation
								JOINT LeftFingerBase
								{
									OFFSET 0.000000 0.000000 0.000000
									CHANNELS 3 Zrotation Yrotation Xrotation
									JOINT LeftHandIndex1
									{
										OFFSET 0.715260 -0.000000 -0.000000
										CHANNELS 3 Zrotation Yrotation Xrotation
										End Site
										{
											OFFSET 0.000000 0.000000 0.000000
										}
									}
								}
								JOINT LThumb
								{
									OFFSET 0.000000 0.000000 0.000000
									CHANNELS 3 Zrotation Yrotation Xrotation
									End Site
									{
										OFFSET 0.000000 0.000000 0.000000
									}
								}
							}
						}
					}
				}
				JOINT RightShoulder
				{
					OFFSET 0.000000 0.000000 0.000000
					CHANNELS 3 Zrotation Yrotation Xrotation
					JOINT RightArm
					{
						OFFSET -3.136600 1.374050 -0.404650
						CHANNELS 3 Zrotation Yrotation Xrotation
						JOINT RightForeArm
						{
							OFFSET -5.241900 -0.000000 -0.000000
							CHANNELS 3 Zrotation Yrotation Xrotation
							JOINT RightHand
							{
								OFFSET -3.444170 -0.000000 -0.000000
								CHANNELS 3 Zrotation Yrotation Xrotation
								JOINT RightFingerBase
								{
									OFFSET 0.000000 0.000000 0.000000
									CHANNELS 3 Zrotation Yrotation Xrotation
									JOINT RightHandIndex1
									{
										OFFSET -0.622530 -0.000000 -0.000000
										CHANNELS 3 Zrotation Yrotation Xrotation
										End Site
										{
											OFFSET 0.000000 0.000000 0.000000
										}
									}
								}
								JOINT RThumb
								{
									OFFSET 0.000000 0.000000 0.000000
									CHANNELS 3 Zrotation Yrotation Xrotation
									End Site
									{
										OFFSET 0.000000 0.000000 0.000000
									}
								}
							}
						}
					}
				}
			}
		}
	}
}
MOTION
Frames: 10
Frame Time: 0.008333
-18.761936 15.004991 -0.791269 -59.262850 83.577159 -19.736720 -7.461949 -0.371430 1.924741 -14.489531 -5.052195 -93.013563 -1.876248 4.877282 48.082888 2.157964 8.730376 -1.566128 2.090900 0.000000 -9.536100 11.352193 -2.019587 -3.861531 9.364020 -6.010224 -14.825512 1.594159 -1.938653 36.163472 0.166528 3.385089 -0.880873 0.239200 0.000000 -87.323600 -5.794269 0.333484 5.285616 -2.147191 0.672022 -1.915869 -5.980482 0.763461 -0.049344 8.522388 -14.922176 -9.364996 -0.410388 0.029869 -0.883578 0.000000 0.000000 0.000000 10.696782 15.537053 1.398732 -70.172406 34.148724 21.302874 -179.897065 -87.129336 -179.994275 -1.844314 2.580496 -0.040355 0.038707 0.114869 0.000000 0.000000 0.000000 0.000000 0.000000 0.000000 0.000000 -0.690623 -7.929635 -0.518017 74.322339 -5.956812 28.481404 179.595512 68.579996 179.998782 0.393854 3.632839 0.017602 -0.084861 -0.489687 -0.000000 0.000000 0.000000 0.000000 0.000000 0.000000 0.000000 
-18.579512 14.986205 -0.807584 -61.718913 83.598554 -22.240228 -7.351591 -0.432616 1.760113 -14.289655 -5.112016 -93.186500 -1.646453 5.026807 50.335732 2.215268 8.730408 -2.985074 1.807200 -0.000000 -8.753600 11.554553 -2.026847 -3.915077 9.268680 -6.311300 -15.244710 1.342463 -2.090339 37.653018 0.133008 3.201950 1.384872 0.333900 -0.000000 -87.875900 -5.987432 0.259171 5.516904 -2.213765 0.603642 -1.869960 -6.082663 0.700005 -0.106778 8.605834 -14.717670 -9.288710 -0.509452 0.021284 -0.873932 0.000000 0.000000 0.000000 10.417378 15.063182 1.450309 -70.329255 32.808079 20.352645 -179.919907 -87.750519 -179.995036 -1.508225 2.687713 -0.034286 0.029584 0.119796 0.000000 0.000000 0.000000 0.000000 0.000000 0.000000 0.000000 -0.261587 -7.752782 -0.490936 74.818139 -6.025728 28.272182 179.617539 68.909268 179.998284 0.352325 3.695863 0.016407 -0.086108 -0.492861 0.000000 0.000000 0.000000 0.000000 0.000000 0.000000 0.000000 
-18.400353 14.969654 -0.825046 -64.507445 83.627450 -25.068596 -7.238862 -0.508009 1.604288 -14.087642 -5.200463 -93.227927 -1.444369 5.135163 52.381567 2.287419 8.759924 -4.593475 1.496600 -0.000000 -8.248400 11.757447 -2.027583 -3.977843 9.218136 -6.631691 -15.731480 1.088463 -2.236903 39.169435 0.063570 2.886354 3.767079 0.415500 -0.000000 -88.091800 -6.143458 0.178191 5.756592 -2.270208 0.527573 -1.817861 -6.172258 0.628736 -0.153414 8.661699 -14.500545 -9.183983 -0.610478 0.012096 -0.856983 0.000000 0.000000 0.000000 10.167978 14.589444 1.495224 -70.493186 31.376897 19.412949 -179.944971 -88.425370 -179.995879 -1.174185 2.816937 -0.027820 0.020510 0.124627 0.000000 0.000000 0.000000 0.000000 0.000000 0.000000 0.000000 0.165048 -7.586095 -0.470898 75.316412 -6.056686 28.047811 179.640787 69.379004 179.997736 0.300415 3.752510 0.014812 -0.086637 -0.494612 -0.000000 0.000000 0.000000 0.000000 0.000000 0.000000 0.000000 
-18.224102 14.954963 -0.843563 -67.623661 83.653652 -28.209636 -7.130409 -0.599282 1.460662 -13.885276 -5.301056 -93.173303 -1.267635 5.210785 54.227673 2.369313 8.814869 -6.279533 1.173699 0.000000 -7.979300 11.955017 -2.024908 -4.042037 9.222024 -6.958599 -16.295647 0.836320 -2.376515 40.704153 -0.043673 2.427942 6.290164 0.466000 -0.000000 -87.956700 -6.260670 0.089955 5.989474 -2.315818 0.443034 -1.765010 -6.248630 0.548468 -0.196762 8.685671 -14.266691 -9.044639 -0.711820 0.002293 -0.830243 0.000000 0.000000 0.000000 9.924333 14.085727 1.529778 -70.656018 29.926071 18.446450 -179.970192 -89.103805 -179.996823 -0.838691 2.961743 -0.020654 0.011488 0.129440 0.000000 0.000000 0.000000 0.000000 0.000000 0.000000 0.000000 0.574438 -7.423647 -0.454908 75.819875 -6.067306 27.810808 179.664384 69.994334 179.997250 0.254104 3.803792 0.013214 -0.086867 -0.494828 -0.000000 0.000000 0.000000 0.000000 0.000000 0.000000 0.000000 
-18.050106 14.941759 -0.862937 -71.028344 83.672745 -31.621022 -7.032285 -0.706443 1.329938 -13.690622 -5.400349 -93.050700 -1.112786 5.261812 55.886558 2.454444 8.887051 -7.935500 0.853600 -0.000001 -7.947100 12.140348 -2.019993 -4.103088 9.283749 -7.283680 -16.936588 0.592928 -2.506766 42.247567 -0.188925 1.822490 8.937467 0.462499 -0.000000 -87.394100 -6.345635 -0.005981 6.207000 -2.351510 0.349610 -1.712903 -6.310102 0.458722 -0.235138 8.679178 -14.020160 -8.872848 -0.811088 -0.007890 -0.793959 0.000000 0.000000 0.000000 9.695187 13.556026 1.552672 -70.820520 28.470819 17.455315 -179.995174 -89.775880 -179.997908 -0.496795 3.114844 -0.012592 0.002461 0.134344 0.000000 0.000000 0.000000 0.000000 0.000000 0.000000 0.000000 0.959220 -7.270014 -0.442654 76.327047 -6.062448 27.564726 179.687992 70.755713 179.996897 0.223708 3.849302 0.012212 -0.087077 -0.493417 -0.000000 0.000000 0.000000 0.000000 0.000000 0.000000 0.000000 
-17.878799 14.929774 -0.882881 -74.669851 83.682746 -35.250501 -6.949257 -0.827948 1.211442 -13.512713 -5.487392 -92.885796 -0.976207 5.296002 57.376707 2.535713 8.963328 -9.478263 0.549400 -0.000000 -8.109300 12.306787 -2.012794 -4.158589 9.403568 -7.599325 -17.649691 0.366785 -2.625849 43.794807 -0.369172 1.072154 11.649372 0.379400 0.000000 -86.295800 -6.407828 -0.109585 6.405021 -2.378767 0.247475 -1.660617 -6.354628 0.359846 -0.261463 8.646794 -13.771206 -8.677244 -0.905529 -0.018061 -0.750459 0.000000 0.000000 0.000000 9.503492 13.029196 1.563587 -70.990416 26.989075 16.470329 -0.020432 -89.546207 0.000882 -0.142138 3.272226 -0.003231 -0.006711 0.139428 0.000000 0.000000 0.000000 0.000000 0.000000 0.000000 0.000000 1.316612 -7.136559 -0.435247 76.833234 -6.038412 27.315093 179.711430 71.660724 179.996726 0.215671 3.885754 0.012006 -0.087421 -0.490263 0.000000 0.000000 0.000000 0.000000 0.000000 0.000000 0.000000 
-17.709775 14.918878 -0.903119 -78.468714 83.682114 -39.017805 -6.885139 -0.959646 1.105059 -13.361084 -5.553431 -92.702735 -0.854932 5.320564 58.718048 2.606417 9.028294 -10.850552 0.272000 0.000000 -8.419700 12.449458 -2.002251 -4.207266 9.578721 -7.902532 -18.438118 0.164399 -2.733493 45.352723 -0.578594 0.186539 14.366222 0.194900 0.000000 -84.602200 -6.456785 -0.220832 6.580121 -2.399577 0.136720 -1.609634 -6.382707 0.251918 -0.277957 8.592163 -13.521194 -8.460946 -0.994185 -0.028088 -0.700422 0.000000 0.000000 0.000000 9.347673 12.502239 1.561732 -71.160802 25.500385 15.491349 -0.045128 -88.882495 -0.000496 0.233304 3.426804 0.007628 -0.016107 0.144803 0.000000 0.000000 0.000000 0.000000 0.000000 0.000000 0.000000 1.644626 -7.022353 -0.430931 77.336523 -6.003467 27.061083 179.734555 72.701115 179.996740 0.230693 3.911692 0.012595 -0.087900 -0.485426 0.000000 0.000000 0.000000 0.000000 0.000000 0.000000 0.000000 
-17.543001 14.909078 -0.923313 -82.363521 83.671295 -42.862320 -6.841267 -1.096657 1.009376 -13.244621 -5.593703 -92.517343 -0.746804 5.341057 59.931054 2.661196 9.065960 -12.027042 0.028400 0.000000 -8.817200 12.565729 -1.987517 -4.249702 9.804292 -8.191528 -19.301748 -0.008586 -2.831284 46.930223 -0.808118 -0.821231 16.991337 -0.107901 -0.000000 -82.283600 -6.500075 -0.339574 6.733128 -2.415744 0.017604 -1.560840 -6.395723 0.135201 -0.288180 8.519275 -13.271866 -8.227119 -1.076882 -0.037903 -0.644679 0.000000 0.000000 0.000000 9.223681 11.966197 1.546879 -71.324121 24.024194 14.517268 -0.068332 -88.254512 -0.002096 0.634037 3.572759 0.020286 -0.025721 0.150551 0.000000 0.000000 0.000000 0.000000 0.000000 0.000000 0.000000 1.944819 -6.926257 -0.427056 77.833146 -5.964963 26.801564 179.757224 73.867603 179.996919 0.264817 3.924915 0.013982 -0.088368 -0.479006 0.000000 0.000000 0.000000 0.000000 0.000000 0.000000 0.000000 
-17.379024 14.900438 -0.943268 -86.320129 83.651955 -46.753148 -6.816753 -1.234571 0.921893 -13.170738 -5.607036 -92.336748 -0.650547 5.361175 61.035146 2.696908 9.062963 -13.011652 -0.179600 0.000000 -9.242900 12.655512 -1.968861 -4.288471 10.074081 -8.468453 -20.240097 -0.149403 -2.923590 48.540601 -1.046421 -1.933398 19.409730 -0.534700 -0.000000 -79.387000 -6.543748 -0.465868 6.868804 -2.428768 -0.109680 -1.513373 -6.395254 0.010044 -0.292532 8.433497 -13.026747 -7.982062 -1.153512 -0.047378 -0.585134 0.000000 0.000000 0.000000 9.135203 11.428605 1.519770 -71.473118 22.556460 13.566104 -0.089737 -87.669005 -0.003922 1.063143 3.705560 0.034641 -0.035573 0.156740 0.000000 0.000000 0.000000 0.000000 0.000000 0.000000 0.000000 2.221099 -6.849482 -0.422575 78.317360 -5.924900 26.536496 179.779703 75.144442 179.997195 0.308277 3.923745 0.015566 -0.088599 -0.471178 0.000000 0.000000 0.000000 0.000000 0.000000 0.000000 0.000000 
-17.217662 14.893122 -0.962792 -90.322500 83.626005 -50.677932 -6.809722 -1.370244 0.839762 -13.143631 -5.595334 -92.161113 -0.565755 5.382864 62.046574 2.712869 9.010169 -13.831297 -0.354201 -0.000000 -9.651800 12.720024 -1.948166 -4.327011 10.381718 -8.735654 -21.251921 -0.259192 -3.016933 50.197836 -1.281708 -3.129041 21.499799 -1.076801 0.000000 -76.042100 -6.590853 -0.599874 6.993867 -2.439707 -0.245057 -1.466432 -6.383645 -0.123352 -0.293404 8.339112 -12.788118 -7.730794 -1.224774 -0.056476 -0.523372 0.000000 0.000000 0.000000 9.079396 10.888396 1.481504 -71.597804 21.099391 12.650376 -0.108857 -87.137033 -0.005974 1.518494 3.821741 0.050594 -0.045588 0.163402 0.000000 0.000000 0.000000 0.000000 0.000000 0.000000 0.000000 2.479070 -6.791527 -0.415704 78.781579 -5.886154 26.265384 179.802186 76.515176 179.997484 0.348258 3.907356 0.017053 -0.088306 -0.462170 0.000000 0.000000 0.000000 0.000000 0.000000 0.000000 0.000000 
